<svg width="40" height="40" viewBox="0 0 40 40" fill="none" xmlns="http://www.w3.org/2000/svg">
<path d="M24.1916 27.4999C21.2928 27.4999 18.3939 27.4999 15.495 27.4999C15.4728 27.4904 15.4474 27.4745 15.4251 27.4713C14.4461 27.287 13.75 26.4605 13.75 25.472C13.75 23.4409 13.75 21.413 13.75 19.3818C13.75 18.8065 13.9661 18.3234 14.3698 17.9229C14.497 17.7957 14.6877 17.7036 14.7513 17.5542C14.818 17.392 14.7671 17.1791 14.7671 16.9884C14.7671 16.9566 14.7671 16.9248 14.7671 16.893C14.7608 16.3177 14.7671 15.7455 14.8943 15.1766C15.3679 13.0406 17.3291 11.3718 19.5191 11.2574C20.94 11.1875 22.1987 11.6134 23.254 12.5733C24.2012 13.4347 24.7638 14.5091 24.8846 15.7869C24.9354 16.3431 24.9164 16.9057 24.9195 17.4652C24.9195 17.5764 24.9513 17.64 25.0435 17.7067C25.6284 18.1168 25.9367 18.6762 25.9367 19.3977C25.9367 21.4289 25.9367 23.4568 25.9367 25.4879C25.9367 26.327 25.4059 27.0836 24.6112 27.376C24.4745 27.4237 24.3315 27.4586 24.1916 27.4999ZM22.9075 17.338C22.8916 16.839 22.917 16.3527 22.8503 15.879C22.5896 14.0196 20.6888 12.8562 18.9025 13.4379C17.6819 13.8352 16.8396 14.9604 16.8046 16.2478C16.7951 16.6101 16.8046 16.9725 16.8046 17.338C18.8357 17.338 20.8541 17.338 22.9075 17.338ZM20.8605 24.4453C20.8605 24.0226 20.8637 23.6125 20.8573 23.1993C20.8573 23.0944 20.8827 23.015 20.9558 22.9323C21.3055 22.5477 21.4358 22.0932 21.3246 21.5846C21.1847 20.9425 20.6698 20.4912 19.9832 20.399C19.4142 20.3227 18.7849 20.6628 18.502 21.2064C18.2 21.7785 18.289 22.4587 18.734 22.9387C18.8071 23.015 18.8326 23.0881 18.8294 23.1898C18.8262 23.6062 18.8262 24.0226 18.8262 24.4453C19.5064 24.4453 20.1707 24.4453 20.8605 24.4453Z" fill="white"/>
<circle cx="20" cy="20" r="19.5" stroke="white"/>
</svg>
