<svg width="26" height="18" viewBox="0 0 26 18" fill="none" xmlns="http://www.w3.org/2000/svg">
<path d="M1.07299 2.69092C1.07299 6.76172 1.07299 10.8325 1.07299 14.9033C1.10181 15.0264 1.128 15.1469 1.15681 15.2701C1.43711 16.3965 2.35919 17.0802 3.61134 17.0802C9.8852 17.0802 16.1591 17.0802 22.4329 17.0802C22.5063 17.0802 22.5796 17.0802 22.653 17.0776C23.9837 17.0068 24.932 16.035 24.9608 14.7042C24.9686 14.3296 24.9634 13.955 24.9634 13.5831C24.9634 10.0702 24.9634 6.55739 24.9634 3.04718C24.9634 1.98888 24.5102 1.20825 23.5384 0.755061C23.3524 0.668615 23.1454 0.621463 22.9463 0.558594C16.3319 0.558593 9.71493 0.558592 3.10053 0.558592C3.05076 0.576929 3.00099 0.597885 2.95122 0.610983C2.00032 0.846744 1.40568 1.44138 1.15158 2.38181C1.12276 2.48135 1.09919 2.58613 1.07299 2.69092ZM23.4152 15.9197C23.1061 16.145 22.7865 16.1738 22.4539 16.1738C16.1695 16.1712 9.8852 16.1712 3.60087 16.1712C3.49085 16.1712 3.37821 16.1843 3.27342 16.1607C3.05338 16.1057 2.83596 16.0271 2.57662 15.9459C4.83992 13.3709 7.05607 10.8482 9.28008 8.31512C9.36391 8.38585 9.43464 8.44348 9.50275 8.50111C10.5427 9.41796 11.5853 10.3374 12.6253 11.2517C12.9344 11.5241 13.1073 11.5241 13.4111 11.2569C14.459 10.3348 15.5068 9.4101 16.5546 8.48801C16.6122 8.43562 16.6725 8.38847 16.7432 8.32822C18.9751 10.8666 21.1834 13.3814 23.4152 15.9197ZM3.00099 1.57236C3.00885 1.54879 3.01671 1.52521 3.02456 1.50163C3.18436 1.4833 3.34677 1.45186 3.50656 1.45186C9.85377 1.44924 16.201 1.44924 22.5482 1.45186C22.7106 1.45186 22.8756 1.48854 23.1088 1.51473C19.7059 4.51675 16.3686 7.45852 13.0234 10.4082C9.66516 7.44805 6.33307 4.50889 3.00099 1.57236ZM23.9994 15.2229C21.778 12.6924 19.6012 10.2169 17.4191 7.73096C19.5671 5.83701 21.6811 3.9745 23.871 2.04127C23.9418 2.37919 24.0492 2.65686 24.0518 2.93192C24.0623 6.8534 24.0597 10.7775 24.057 14.699C24.0544 14.8536 24.023 15.0029 23.9994 15.2229ZM2.20464 2.06746C4.37102 3.97712 6.48239 5.83963 8.6121 7.71786C6.43 10.2012 4.26362 12.6662 2.09724 15.1338C2.07366 15.1234 2.04747 15.1129 2.02389 15.1024C2.01341 14.9138 1.99508 14.7252 1.99508 14.5366C1.99246 10.7251 1.99246 6.91103 1.99508 3.09957C1.99508 2.98169 1.98198 2.85857 2.00817 2.74593C2.05532 2.53112 2.12867 2.32156 2.20464 2.06746Z" fill="#39CE8E" stroke="#39CE8E" stroke-width="0.4"/>
</svg>
