<svg width="24" height="24" viewBox="0 0 24 24" fill="none" xmlns="http://www.w3.org/2000/svg">
<path d="M17.6582 0.333622C17.3294 0.386829 17.0006 0.433388 16.6752 0.493246C15.4037 0.729355 14.2161 1.20157 13.0586 1.76358C11.1664 2.68474 9.40511 3.81208 7.8283 5.1988C4.66798 7.97226 2.16521 11.2146 0.759502 15.2085C0.410592 16.1962 0.202588 17.2104 0.226073 18.2646C0.249557 19.2789 0.581693 20.1701 1.303 20.8984C1.94379 21.5435 2.56445 22.212 3.24885 22.8039C4.35932 23.765 5.50335 23.7517 6.57021 22.754C7.64714 21.7464 8.68716 20.6956 9.70035 19.6247C10.5324 18.7468 10.529 17.553 9.71377 16.6584C9.14343 16.0332 8.52613 15.4479 7.91889 14.856C7.79811 14.7396 7.78805 14.6565 7.8585 14.5102C8.46238 13.2564 9.33801 12.1989 10.2841 11.1946C11.247 10.1704 12.3071 9.25589 13.4981 8.50433C13.8101 8.3048 14.149 8.14851 14.471 7.96228C14.5985 7.88579 14.6757 7.8991 14.7797 8.00551C15.2863 8.51764 15.7962 9.02311 16.3095 9.52526C16.7088 9.91766 17.1583 10.2369 17.7287 10.33C18.5003 10.4564 19.1578 10.207 19.7013 9.6749C20.6944 8.70719 21.6774 7.7295 22.657 6.7518C23.7138 5.70095 23.7977 4.51043 22.8214 3.39307C22.1471 2.62156 21.3989 1.90658 20.6474 1.2049C20.114 0.706078 19.4397 0.459991 18.7116 0.373529C18.6613 0.366879 18.611 0.346924 18.5607 0.333622C18.2654 0.333622 17.9601 0.333622 17.6582 0.333622ZM18.1078 1.49754C18.8123 1.48424 19.4631 1.66049 19.9731 2.14934C20.6575 2.80445 21.3184 3.47953 21.9626 4.17123C22.4524 4.69998 22.4423 5.26531 21.9357 5.78409C20.9158 6.82164 19.8825 7.83924 18.8391 8.85351C18.4198 9.26254 17.8796 9.26587 17.4099 8.90672C17.3026 8.82358 17.2053 8.72714 17.108 8.63403C16.541 8.07535 15.9807 7.51334 15.4138 6.95798C15.0447 6.59551 14.6455 6.53232 14.1859 6.76511C13.8537 6.93138 13.5216 7.10098 13.2029 7.29053C11.6965 8.18509 10.3915 9.31908 9.21388 10.6027C8.21748 11.6868 7.315 12.8374 6.70441 14.1876C6.43266 14.7895 6.49976 15.1254 6.97951 15.5843C7.53643 16.1164 8.09334 16.6518 8.63684 17.2005C9.28098 17.8523 9.27427 18.381 8.64019 19.0428C8.63348 19.0494 8.63013 19.0528 8.62342 19.0594C7.68404 19.9905 6.74467 20.9283 5.79858 21.8528C5.65097 21.9991 5.47315 22.1355 5.28528 22.2186C4.75185 22.4581 4.32578 22.2219 3.95003 21.8595C3.37298 21.3008 2.79258 20.7454 2.24573 20.1601C1.9874 19.8841 1.75591 19.5549 1.6083 19.2124C1.28958 18.4642 1.3701 17.6727 1.53113 16.8979C1.83979 15.3947 2.44031 13.998 3.18846 12.6645C4.51365 10.3067 6.19782 8.23164 8.21412 6.41926C10.2338 4.60687 12.495 3.17691 15.0279 2.17927C16.0176 1.78686 17.0375 1.5308 18.1078 1.49754Z" fill="#39CE8E" stroke="#39CE8E" stroke-width="0.4"/>
</svg>
