<svg width="18" height="12" viewBox="0 0 18 12" fill="none" xmlns="http://www.w3.org/2000/svg">
<path d="M9 0.128906C11.7714 0.128906 14.5429 0.128906 17.3143 0.128906C17.6571 0.128906 18 0.443192 18 0.786049C18 4.24319 18 7.72891 18 11.186C18 11.5575 17.6857 11.8718 17.3143 11.8718C11.7714 11.8718 6.22857 11.8718 0.685715 11.8718C0.285715 11.8718 0 11.586 0 11.186C0 7.72891 0 4.27176 0 0.814621C0 0.414621 0.285715 0.128906 0.685715 0.128906C3.42857 0.128906 6.22857 0.128906 9 0.128906ZM15.8286 1.10033C15.7714 1.10033 15.7429 1.10033 15.7143 1.10033C14.4571 1.10033 13.2 1.12891 11.9143 1.12891C11.2286 1.12891 10.5429 1.12891 9.82857 1.12891C7.28571 1.12891 4.74286 1.12891 2.2 1.12891C2.14286 1.12891 2.05714 1.12891 2 1.12891C2.05714 1.21462 2.08571 1.24319 2.14286 1.27176C2.31429 1.41462 2.48571 1.55748 2.68571 1.70033C2.94286 1.90033 3.22857 2.10034 3.48571 2.32891C3.74286 2.52891 3.97143 2.72891 4.22857 2.92891C4.42857 3.10033 4.65714 3.24319 4.85714 3.41462C5.08571 3.61462 5.34286 3.78605 5.57143 3.98605C5.77143 4.15748 5.97143 4.30034 6.17143 4.47176C6.37143 4.61462 6.54286 4.75748 6.74286 4.92891C7 5.12891 7.25714 5.32891 7.51429 5.52891C7.68572 5.67176 7.88571 5.81462 8.05714 5.95748C8.22857 6.10034 8.42857 6.24319 8.6 6.38605C8.71429 6.47176 8.8 6.50034 8.91429 6.41462C9.08571 6.27176 9.22857 6.15748 9.4 6.01462C9.62857 5.84319 9.88571 5.67176 10.1143 5.47176C10.4286 5.24319 10.7143 4.98605 11.0286 4.75748C11.3429 4.50034 11.6857 4.27176 12 4.01462C12.2286 3.84319 12.4571 3.64319 12.6857 3.47176C12.9714 3.24319 13.2857 3.04319 13.5714 2.81462C13.8857 2.55748 14.2 2.30033 14.5143 2.07176C14.8286 1.84319 15.1429 1.61462 15.4571 1.38605C15.6 1.30033 15.7143 1.21462 15.8286 1.10033ZM1.77143 10.986V11.0146C6.51429 11.0146 11.2857 11.0146 16.0857 11.0146C15.8571 10.8432 15.6857 10.7003 15.5143 10.586C15.2 10.3575 14.8857 10.1575 14.6 9.92891C14.2286 9.67176 13.8571 9.38605 13.5143 9.10034C12.9429 8.70034 12.4 8.27176 11.8286 7.87176C11.3143 7.50034 10.8286 7.12891 10.3143 6.78605C10.2571 6.75748 10.1429 6.75748 10.1143 6.78605C9.8 7.01462 9.51429 7.24319 9.22857 7.50034C9.05714 7.64319 8.77143 7.70034 8.6 7.55748C8.22857 7.30033 7.85714 7.01462 7.51429 6.72891C5.6 8.15748 3.68571 9.58605 1.77143 10.986ZM11.0286 6.10034C13.0571 7.55748 15.0286 9.01462 17.0286 10.4718C17.0286 7.47176 17.0286 4.50033 17.0286 1.44319C15 3.01462 13 4.55748 11.0286 6.10034ZM0.914285 1.52891C0.914285 4.47176 0.914285 7.41462 0.914285 10.386C2.85714 8.95748 4.77143 7.55748 6.68572 6.12891C4.77143 4.58605 2.85714 3.07176 0.914285 1.52891Z" fill="#232425"/>
</svg>
