<svg width="40" height="40" viewBox="0 0 40 40" fill="none" xmlns="http://www.w3.org/2000/svg">
<circle cx="20" cy="20" r="19.5" fill="#39CE8E" stroke="#39CE8E"/>
<path d="M24.3458 29.5198C24.2389 29.5198 24.0785 29.5198 23.9716 29.4663C23.4905 29.4128 23.0628 29.2525 22.6886 28.9852C21.9401 28.504 21.459 27.809 21.2451 26.9002C21.1382 26.4725 21.1917 25.9914 21.2986 25.5637C21.2986 25.4568 21.2986 25.4033 21.2451 25.4033C20.0155 24.7083 18.7859 24.0133 17.6098 23.3183C16.8614 22.8907 16.1664 22.463 15.4179 22.0353C15.3645 21.9818 15.3645 22.0353 15.311 22.0353C14.616 22.6768 13.8141 22.9441 12.9053 22.8907C11.5153 22.7837 10.3926 21.768 10.0719 20.4315C9.85804 19.3623 10.1253 18.4534 10.8203 17.6515C11.3015 17.1169 11.8895 16.7962 12.5311 16.6892C13.5468 16.5289 14.5091 16.7427 15.2575 17.4912C15.4179 17.6515 15.4179 17.6515 15.5783 17.5446C16.2733 17.1169 16.9683 16.7427 17.7167 16.315C18.4117 15.9408 19.0532 15.5666 19.7482 15.1389C20.2828 14.8181 20.764 14.5508 21.2986 14.2301C21.352 14.1766 21.352 14.1766 21.352 14.1231C21.0313 13.0005 21.2451 11.9313 21.9936 11.0759C22.4747 10.5413 23.0628 10.2205 23.8112 10.0601C24.6131 9.89976 25.415 10.0601 26.11 10.5413C26.8585 11.0224 27.2862 11.7174 27.4465 12.5728C27.6069 13.5351 27.3931 14.3904 26.805 15.1924C26.3239 15.7804 25.6823 16.2081 24.8804 16.315C23.7578 16.4754 22.7955 16.1546 22.047 15.3527C22.047 15.3527 21.9936 15.3527 21.9936 15.2993C20.0155 16.4219 18.0375 17.5981 16.0595 18.7207C16.1664 19.095 16.2733 19.4692 16.2733 19.8969C16.2733 20.2711 16.1664 20.6988 16.006 21.073C17.984 22.1957 19.9086 23.3183 21.8866 24.441C22.1005 24.2806 22.2609 24.0668 22.4747 23.9064C23.0628 23.4787 23.7043 23.2649 24.3993 23.2649C25.415 23.2649 26.2169 23.6926 26.8585 24.4945C27.2862 25.0291 27.5 25.6171 27.5 26.3121C27.5 27.221 27.2327 27.9694 26.5912 28.6109C26.11 29.0921 25.5754 29.4128 24.8804 29.5198C24.7201 29.5732 24.5597 29.5732 24.3993 29.5732C24.4528 29.5198 24.3993 29.5198 24.3458 29.5198Z" fill="white"/>
</svg>
