<svg width="13" height="14" viewBox="0 0 13 14" fill="none" xmlns="http://www.w3.org/2000/svg">
<path d="M3.31931 13.5C1.47981 13.5 0.159142 12.3208 0.0176417 10.7643C-0.0766917 9.821 0.206309 8.972 0.890226 8.28808C1.31473 7.86358 1.76281 7.4155 2.18731 6.99099C2.37598 6.80233 2.65898 6.75516 2.89481 6.87308C3.13065 6.99099 3.27215 7.22683 3.27215 7.48625C3.27215 7.67491 3.17781 7.81641 3.03631 7.95791C2.61181 8.38241 2.18731 8.78333 1.76281 9.23141C0.890226 10.104 1.19681 11.6133 2.3524 12.085C3.01273 12.368 3.79098 12.2265 4.28623 11.7077C5.27673 10.7172 6.29082 9.72667 7.28132 8.71258C8.0124 8.00508 8.0124 6.96741 7.3049 6.21274C7.04549 5.92974 7.0219 5.52883 7.3049 5.29299C7.56432 5.03358 7.96524 5.05716 8.22465 5.34016C9.38024 6.51933 9.40382 8.406 8.24824 9.58517C7.23415 10.6228 6.19648 11.6605 5.13523 12.6982C4.56923 13.2406 3.86173 13.5 3.31931 13.5Z" fill="#39CE8E"/>
<path d="M12.9889 3.47707C12.9889 4.42041 12.6824 5.15149 12.0928 5.76466C11.8098 6.04766 11.5268 6.33066 11.2202 6.63724C11.0315 6.82591 10.8193 6.87308 10.5834 6.80233C10.3476 6.73158 10.1825 6.56649 10.1354 6.30708C10.0882 6.07124 10.1589 5.88258 10.324 5.71749C10.607 5.43449 10.8664 5.17508 11.1494 4.89207C11.6683 4.37324 11.8098 3.73649 11.5975 3.05257C11.3853 2.36865 10.89 1.94415 10.1825 1.84982C9.64011 1.75549 9.12127 1.89699 8.72036 2.2979C7.82419 3.17049 6.92802 4.06666 6.05544 4.96282C5.37152 5.67033 5.3951 6.68441 6.07902 7.41549C6.36202 7.72208 6.33844 8.14658 6.03185 8.38241C5.77244 8.57108 5.41869 8.5475 5.18285 8.28808C4.02727 7.13249 3.9801 5.24583 5.1121 4.06666C6.00827 3.12332 6.92802 2.20357 7.87136 1.3074C8.72036 0.505569 9.75802 0.316902 10.8429 0.670652C11.9513 1.0244 12.6352 1.80265 12.8946 2.93466C12.9654 3.14691 12.9654 3.35916 12.9889 3.47707Z" fill="#39CE8E"/>
</svg>
