<svg width="18" height="12" viewBox="0 0 18 12" fill="none" xmlns="http://www.w3.org/2000/svg">
<path d="M9 0.128601C11.7714 0.128601 14.5429 0.128601 17.3143 0.128601C17.6571 0.128601 18 0.442887 18 0.785744C18 4.24289 18 7.7286 18 11.1857C18 11.5572 17.6857 11.8715 17.3143 11.8715C11.7714 11.8715 6.22857 11.8715 0.685715 11.8715C0.285715 11.8715 0 11.5857 0 11.1857C0 7.7286 0 4.27146 0 0.814315C0 0.414315 0.285715 0.128601 0.685715 0.128601C3.42857 0.128601 6.22857 0.128601 9 0.128601ZM15.8286 1.10003C15.7714 1.10003 15.7429 1.10003 15.7143 1.10003C14.4571 1.10003 13.2 1.1286 11.9143 1.1286C11.2286 1.1286 10.5429 1.1286 9.82857 1.1286C7.28571 1.1286 4.74286 1.1286 2.2 1.1286C2.14286 1.1286 2.05714 1.1286 2 1.1286C2.05714 1.21432 2.08571 1.24289 2.14286 1.27146C2.31429 1.41432 2.48571 1.55717 2.68571 1.70003C2.94286 1.90003 3.22857 2.10003 3.48571 2.3286C3.74286 2.5286 3.97143 2.7286 4.22857 2.9286C4.42857 3.10003 4.65714 3.24289 4.85714 3.41432C5.08571 3.61432 5.34286 3.78574 5.57143 3.98574C5.77143 4.15717 5.97143 4.30003 6.17143 4.47146C6.37143 4.61432 6.54286 4.75717 6.74286 4.9286C7 5.1286 7.25714 5.3286 7.51429 5.5286C7.68572 5.67146 7.88571 5.81432 8.05714 5.95717C8.22857 6.10003 8.42857 6.24289 8.6 6.38574C8.71429 6.47146 8.8 6.50003 8.91429 6.41432C9.08571 6.27146 9.22857 6.15717 9.4 6.01432C9.62857 5.84289 9.88571 5.67146 10.1143 5.47146C10.4286 5.24289 10.7143 4.98574 11.0286 4.75717C11.3429 4.50003 11.6857 4.27146 12 4.01432C12.2286 3.84289 12.4571 3.64289 12.6857 3.47146C12.9714 3.24289 13.2857 3.04289 13.5714 2.81432C13.8857 2.55717 14.2 2.30003 14.5143 2.07146C14.8286 1.84289 15.1429 1.61432 15.4571 1.38574C15.6 1.30003 15.7143 1.21432 15.8286 1.10003ZM1.77143 10.9857V11.0143C6.51429 11.0143 11.2857 11.0143 16.0857 11.0143C15.8571 10.8429 15.6857 10.7 15.5143 10.5857C15.2 10.3572 14.8857 10.1572 14.6 9.9286C14.2286 9.67146 13.8571 9.38574 13.5143 9.10003C12.9429 8.70003 12.4 8.27146 11.8286 7.87146C11.3143 7.50003 10.8286 7.1286 10.3143 6.78574C10.2571 6.75717 10.1429 6.75717 10.1143 6.78574C9.8 7.01432 9.51429 7.24289 9.22857 7.50003C9.05714 7.64289 8.77143 7.70003 8.6 7.55717C8.22857 7.30003 7.85714 7.01432 7.51429 6.7286C5.6 8.15717 3.68571 9.58574 1.77143 10.9857ZM11.0286 6.10003C13.0571 7.55717 15.0286 9.01431 17.0286 10.4715C17.0286 7.47146 17.0286 4.50003 17.0286 1.44289C15 3.01432 13 4.55717 11.0286 6.10003ZM0.914285 1.5286C0.914285 4.47146 0.914285 7.41432 0.914285 10.3857C2.85714 8.95717 4.77143 7.55717 6.68572 6.1286C4.77143 4.58574 2.85714 3.07146 0.914285 1.5286Z" fill="#39CE8E"/>
</svg>
