<svg width="16" height="16" viewBox="0 0 16 16" fill="none" xmlns="http://www.w3.org/2000/svg">
<path d="M11.2869 10.5575C11.3366 10.5891 11.3987 10.6151 11.4427 10.6592C12.7255 11.9397 14.006 13.2213 15.2888 14.5018C15.4627 14.6746 15.5507 14.8676 15.4751 15.1115C15.3599 15.4864 14.9116 15.6253 14.6033 15.3837C14.5537 15.3442 14.5107 15.2967 14.4656 15.2516C13.1964 13.9824 11.9272 12.7132 10.6602 11.4428C10.6162 11.3988 10.5902 11.3367 10.5586 11.287C7.81917 13.5521 3.95395 13.0225 1.87737 10.4762C-0.108874 8.04169 0.067279 4.50733 2.28952 2.28847C4.51629 0.0650939 8.05178 -0.108801 10.4762 1.87406C13.0202 3.95402 13.5498 7.81247 11.2869 10.5575ZM1.60749 6.60536C1.60524 9.36397 3.85345 11.6133 6.61093 11.6133C9.36277 11.6133 11.6053 9.37414 11.6121 6.6223C11.62 3.86256 9.37632 1.61095 6.61771 1.60644C3.86023 1.60192 1.60975 3.84788 1.60749 6.60536Z" fill="#39CE8E"/>
</svg>
