<svg width="18" height="20" viewBox="0 0 18 20" fill="none" xmlns="http://www.w3.org/2000/svg">
<path d="M14.3458 19.5198C14.2389 19.5198 14.0785 19.5198 13.9716 19.4663C13.4905 19.4128 13.0628 19.2525 12.6886 18.9852C11.9401 18.504 11.459 17.809 11.2451 16.9002C11.1382 16.4725 11.1917 15.9914 11.2986 15.5637C11.2986 15.4568 11.2986 15.4033 11.2451 15.4033C10.0155 14.7083 8.78594 14.0133 7.60981 13.3183C6.86136 12.8907 6.16638 12.463 5.41793 12.0353C5.36447 11.9818 5.36447 12.0353 5.31101 12.0353C4.61602 12.6768 3.81411 12.9441 2.90528 12.8907C1.51531 12.7837 0.392641 11.768 0.0718785 10.4315C-0.141964 9.36227 0.125339 8.45344 0.820325 7.65153C1.30147 7.11693 1.88954 6.79617 2.53106 6.68925C3.54681 6.52886 4.5091 6.74271 5.25755 7.49115C5.41793 7.65153 5.41793 7.65153 5.57831 7.54461C6.2733 7.11693 6.96828 6.74271 7.71673 6.31502C8.41172 5.9408 9.05324 5.56657 9.74823 5.13889C10.2828 4.81813 10.764 4.55082 11.2986 4.23006C11.352 4.1766 11.352 4.1766 11.352 4.12314C11.0313 3.00047 11.2451 1.93126 11.9936 1.07589C12.4747 0.541287 13.0628 0.220525 13.8112 0.0601431C14.6131 -0.100238 15.415 0.0601431 16.11 0.541288C16.8585 1.02243 17.2862 1.71742 17.4465 2.57279C17.6069 3.53508 17.3931 4.39044 16.805 5.19235C16.3239 5.78042 15.6823 6.2081 14.8804 6.31502C13.7578 6.4754 12.7955 6.15464 12.047 5.35273C12.047 5.35273 11.9936 5.35273 11.9936 5.29927C10.0155 6.42194 8.03749 7.59807 6.05945 8.72074C6.16638 9.09497 6.2733 9.46919 6.2733 9.89687C6.2733 10.2711 6.16638 10.6988 6.00599 11.073C7.98403 12.1957 9.90861 13.3183 11.8866 14.441C12.1005 14.2806 12.2609 14.0668 12.4747 13.9064C13.0628 13.4787 13.7043 13.2649 14.3993 13.2649C15.415 13.2649 16.2169 13.6926 16.8585 14.4945C17.2862 15.0291 17.5 15.6171 17.5 16.3121C17.5 17.221 17.2327 17.9694 16.5912 18.6109C16.11 19.0921 15.5754 19.4128 14.8804 19.5198C14.7201 19.5732 14.5597 19.5732 14.3993 19.5732C14.4528 19.5198 14.3993 19.5198 14.3458 19.5198Z" fill="white"/>
</svg>
