<svg width="16" height="16" viewBox="0 0 16 16" fill="none" xmlns="http://www.w3.org/2000/svg">
<path d="M11.287 10.5574C11.3367 10.589 11.3988 10.615 11.4428 10.659C12.7256 11.9395 14.0061 13.2212 15.2888 14.5017C15.4627 14.6744 15.5508 14.8675 15.4751 15.1114C15.36 15.4863 14.9117 15.6252 14.6034 15.3836C14.5537 15.344 14.5108 15.2966 14.4656 15.2514C13.1964 13.9822 11.9272 12.713 10.6603 11.4427C10.6162 11.3987 10.5903 11.3365 10.5586 11.2869C7.81923 13.552 3.95401 13.0224 1.87743 10.4761C-0.108813 8.04157 0.0673401 4.50721 2.28959 2.28835C4.51635 0.0649718 8.05184 -0.108923 10.4762 1.87393C13.0203 3.9539 13.5499 7.81234 11.287 10.5574ZM1.60756 6.60524C1.6053 9.36385 3.85351 11.6132 6.611 11.6132C9.36283 11.6132 11.6054 9.37401 11.6122 6.62218C11.6201 3.86244 9.37638 1.61083 6.61777 1.60632C3.86029 1.6018 1.60981 3.84776 1.60756 6.60524Z" fill="#BEBEBE"/>
</svg>
